<svg xmlns="http://www.w3.org/2000/svg" xmlns:xlink="http://www.w3.org/1999/xlink" viewBox="0 0 20 24.4" overflow="visible"><path d="M 19.361 8.319 C 19.219 8.429 16.703 9.837 16.703 12.967 C 16.703 16.589 19.904 17.87 20 17.902 C 19.985 17.98 19.491 19.656 18.312 21.364 C 17.261 22.868 16.163 24.368 14.492 24.368 C 12.822 24.368 12.392 23.404 10.463 23.404 C 8.584 23.404 7.915 24.4 6.387 24.4 C 4.859 24.4 3.793 23.009 2.567 21.301 C 1.147 19.295 0 16.179 0 13.221 C 0 8.477 3.105 5.962 6.161 5.962 C 7.785 5.962 9.139 7.021 10.158 7.021 C 11.129 7.021 12.642 5.898 14.49 5.898 C 15.19 5.898 17.705 5.962 19.361 8.319 Z M 13.613 3.89 C 14.377 2.989 14.917 1.74 14.917 0.49 C 14.917 0.317 14.902 0.142 14.87 0 C 13.627 0.046 12.148 0.822 11.257 1.85 C 10.556 2.64 9.903 3.89 9.903 5.156 C 9.903 5.347 9.935 5.537 9.95 5.598 C 10.028 5.613 10.156 5.63 10.284 5.63 C 11.399 5.63 12.802 4.888 13.613 3.89 Z" fill="rgb(255, 255, 255)"></path></svg>